<svg xmlns="http://www.w3.org/2000/svg" viewBox="0 0 174 96"><path d="M167.194 46.289a45.048 45.048 0 0 1-5.386 3.21 19.835 19.835 0 0 0-.681-5.926l.177-1.158c.439-3.462.756-8.223-2.314-10.65-.374-.298-1.447 0-2.222.309a5.351 5.351 0 0 0-.569-.467c-.094-.28-.187-.56-.271-.859 0-.14-.196-.224-.411-.242.327-.44.299-.953-.494-1.26a15.775 15.775 0 0 0-1.307-.467c-.093-.094-.159-.122-.205-.075a25.69 25.69 0 0 0-3.304-.821c.168-.41.382-.794.644-1.158.149-.186.317-.345.494-.504l.215-.196.084-.074.093-.066c.439-.336.98-.998.252-1.39a2.425 2.425 0 0 0-2.314.28 7.603 7.603 0 0 0-2.409 2.725 56.934 56.934 0 0 0-7.028-.093.957.957 0 0 0 .168-.28c.206-.682-1.054-.607-1.381-.57l-5.414.691c1.587-4.359 3.547-9.912 1.148-14.169-1.372-2.417-4.508-2.977-7.028-3.07a15.969 15.969 0 0 0-8.092 1.894c-5.498 3.025-8.214 8.905-9.483 15.177a2.132 2.132 0 0 0-2.446-.063c-.242.161-.448.37-.606.614-.14.373-.262.737-.374 1.148a1.664 1.664 0 0 0-.401.747v.186h-.233l.074-.354a.767.767 0 0 0 .327-.42 83.919 83.919 0 0 1 2.24-7.887c.317-.878-2.893-.467-3.229.504a58.14 58.14 0 0 0-1.288 4.181 1.043 1.043 0 0 0-.495.373v.122a1.076 1.076 0 0 0-.551-.206v-1.157c0-.495-3.257 0-3.257.877v1.82a3.16 3.16 0 0 0-.542.318l-.214.186a.43.43 0 0 0-.14.28l-.178.14-.056.094a.355.355 0 0 0 0 .532c.252.159.56.224.86.187h.167v.54h-.775l-.466-.055c0-.448-.794-.523-1.568-.373v-.187c-.112-.69-.187-1.372-.262-2.054.28-.093.542-.214.784-.373.187-.112.374-.243.374-.485v-.224c0-.195-.419-.23-.55-.241l-.02-.002a3.232 3.232 0 0 0-.681 0c-.112-1.54-.112-3.052-.112-4.564 0-.97-3.267-.355-3.267.877a61.964 61.964 0 0 0 .224 6.17h-.308v-1.755c0-1.157-1.502-1.41-2.492-.933a1.158 1.158 0 0 0 .43-1.158 34.98 34.98 0 0 1-1.149-4.956c-.224-1.605-3.472-.784-3.266.878.27 1.68.653 3.332 1.157 4.956.28.961 1.55 1.026 2.427.588a1.158 1.158 0 0 0-.43.877v.728a2.073 2.073 0 0 0-.886-.187c-1.223 0-1.932 1.027-1.615 1.718l-.56-.094a15.974 15.974 0 0 1-.83-4.424c0-1.092-1.466-1.157-2.427-.774a.65.65 0 0 0 0-.196c-.411-.943-.71-1.923-.906-2.931-.383-1.559-3.659-.69-3.267.887.168.737.374 1.465.607 2.193h-.075a3.216 3.216 0 0 0-.98.448c-.961.093-2.11.653-2.016 1.4.066.56.15 1.157.243 1.652l-1.895.299a13.717 13.717 0 0 1-.719-2.819c-.149-1.064-1.8-.98-2.697-.299a26.04 26.04 0 0 0-3.603-6.655c-3.136-4.041-8.307-5.45-13.095-4.452a10.417 10.417 0 0 0-5.787 3.062 6.86 6.86 0 0 0-1.344 5.544 22.02 22.02 0 0 0 1.82 6.935 2.873 2.873 0 0 0-1.092.158c-.326.14-.653.29-.961.458-2.24 0-4.48 0-6.702-.084-1.845-.082-3.681-.246-5.516-.41-2.964-.265-5.926-.53-8.923-.449-1.064 0-1.773.84-1.68 1.456a4.985 4.985 0 0 0-2.483 2.65 62.37 62.37 0 0 0-6.16-3.705c-.793-.41-3.808.813-2.641 1.4a61.204 61.204 0 0 1 6.104 3.734 2.53 2.53 0 0 0 2.119-.093l.186-.094a11.342 11.342 0 0 0 .28 5.19.632.632 0 0 0 .196.317c-.018.373-.018.766 0 1.148v.206a1.39 1.39 0 0 0-.877.97 43.202 43.202 0 0 0-.355 4.882 1.26 1.26 0 0 0-.56.933 57.685 57.685 0 0 0 .542 11.546c.28 3.103.73 6.187 1.353 9.24.075.476.14.962.196 1.447a11.2 11.2 0 0 0-.28 4.013c-1.008.206-1.997 1.008-1.419 1.877a10.586 10.586 0 0 0 3.015 3.06 2.669 2.669 0 0 0-2.156.636c-.464.454-.945.887-1.427 1.32-.506.454-1.011.908-1.495 1.386-.503.486-.363 1.074.337 1.251a2.66 2.66 0 0 0 2.305-.625c.454-.445.926-.868 1.398-1.29.518-.465 1.035-.928 1.523-1.417a.746.746 0 0 0 .234-.84c3.342 1.765 7.542 1.43 11.632 1.103h.001c.364-.03.727-.058 1.088-.086a39.89 39.89 0 0 0-2.51 5.778c-.299.83 2.893.42 3.239-.514a37.39 37.39 0 0 1 2.426-5.656c4.322.13 8.643.13 12.946.056.224.234.541.374.868.392 3.752.262 7.523-.01 11.2-.812 4.516-.213 9.038-.483 13.561-.753l3.035-.18c8.699-.224 17.398-.401 26.106-.374l.355.374a1.507 1.507 0 0 0 1.157.373h.224c.619 0 1.243.064 1.864.127l.61.06c.214.028.438.028.653 0l2.707.233c.242.252.569.402.914.42 1.141.073 2.284.148 3.427.224 3.252.214 6.512.43 9.771.588a1.146 1.146 0 0 0 .943.392c2.171.018 4.436.254 6.727.493 6.328.66 12.86 1.342 18.184-2.509.579-.41.308-1.017-.298-1.157h-.383a70.258 70.258 0 0 0 3.398-9.875 1.255 1.255 0 0 0 .746-.99c.075-1.409.215-2.818.43-4.2.186-1.026.364-2.053.513-3.08l.147-.817c.403-2.244.81-4.505 1.001-6.743a57.868 57.868 0 0 0 7.747-4.406c1.801-1.288-.915-2.174-2.128-1.306zm-63.926-17.333-.15.14.271-1.073h.075l-.187.933h-.009zm-28.384-4.359c.15.234.653.262.868.262.439 0 .877-.094 1.279-.262.466-.187 1.269-.644.886-1.232-.164-.259-.32-.555-.48-.862-.204-.39-.417-.797-.668-1.163-.15-.224-.653-.252-.868-.252-.438 0-.868.093-1.27.27-.466.187-1.269.645-.895 1.232.19.292.37.627.555.971.188.35.381.707.593 1.036zM25.686 22.61c.261.747 1.288.747 1.913.579.626-.168 1.606-.71 1.345-1.456a5.388 5.388 0 0 0-1.027-2.054 1.979 1.979 0 0 0-2.194-.177c-.466.224-1.362.97-.793 1.568.373.439.635.97.756 1.54zm11.536 3.454c.971 0 3.547-1.494 1.372-1.494-.98.019-3.556 1.494-1.372 1.494zm106.171-1.877a2.67 2.67 0 0 0 1.213-.074 2.41 2.41 0 0 0 1.083-.56 5.56 5.56 0 0 0 1.157-1.354c.122-.233.196-.466 0-.68a1.248 1.248 0 0 0-.877-.29 3.16 3.16 0 0 0-1.279.252 1.818 1.818 0 0 0-.877.634c-.121.215-.252.411-.411.588l-.224.234c-.186.186-.41.42-.326.71.084.28.298.494.541.54zm15.363 6.263a4.178 4.178 0 0 0 2.184-.765 24.487 24.487 0 0 0 4.182-4.2c.291-.396-.783-.316-1.167-.288a3.19 3.19 0 0 0-2.044.885 22.77 22.77 0 0 1-3.92 3.892c-.56.467.522.495.765.467v.01zm12.573 31.287H165.7a1.847 1.847 0 0 0-1.801 1.307c-.103.858.868 1.073 1.503 1.073h5.628a1.866 1.866 0 0 0 1.755-1.325c.149-.794-.822-1.055-1.456-1.055zM67.65 80.226c-.578.093-1.624.345-1.895.961a39.997 39.997 0 0 0-1.567 4.508c-.243.84 2.968.374 3.229-.522a40.013 40.013 0 0 1 1.577-4.508c.28-.598-1.101-.467-1.344-.44zm5.311 2.996a5.29 5.29 0 0 0-2.305.625c-.159.094-.392.234-.392.448v.402a.868.868 0 0 1-.14.336c-.066.093-.131.214 0 .29.261.102.541.13.821.074a5.9 5.9 0 0 0 1.325-.29c.336-.093.654-.252.915-.476a1.16 1.16 0 0 0 .327-.578c.02-.205.02-.412 0-.616.016-.18-.353-.203-.502-.212-.022 0-.038-.002-.049-.003zm63.6 4.256c-.402-.803-3.454.374-3.258.868.678 1.311 1.49 2.537 2.304 3.765.362.547.724 1.094 1.075 1.649.504.793 3.463-.476 3.257-.878-.366-.584-.746-1.16-1.126-1.735-.792-1.199-1.584-2.398-2.252-3.678v.01zm4.732-2.707c-.336-.681-1.242-.653-1.867-.476-.411.103-1.727.691-1.4 1.354l1.363 2.707c.326.68 1.232.644 1.867.466.401-.093 1.717-.69 1.39-1.353l-1.353-2.707v.01zM6.243 60.263c-1.029.205-2.056.408-3.07.708-.625.168-1.55.746-1.344 1.52.215.785 1.307.822 1.923.654.91-.249 1.835-.437 2.758-.624a48.583 48.583 0 0 0 2.413-.533c.625-.15 1.55-.747 1.344-1.53-.205-.766-1.298-.766-1.914-.645-.701.17-1.406.31-2.11.45zm45.826-7.994c.117 1.358.233 2.717.274 4.081v-.009c.032 1.053-.04 2.147-.11 3.243-.118 1.798-.236 3.604.1 5.25.038.186.079.376.12.569.329 1.514.702 3.236-.54 4.379a3.874 3.874 0 0 1-3.22.877.905.905 0 0 1-.447-1.68 12.323 12.323 0 0 0-.327-2.194 13.464 13.464 0 0 1-.252-2.865c0-.998.027-1.99.054-2.978.054-1.973.108-3.937-.054-5.926l-.187-2.156a29.123 29.123 0 0 0-1.512 4.816 29.1 29.1 0 0 1-1.157 4.62l.102.327c.187.55-.438 1.11-.84 1.353a7.176 7.176 0 0 1-.961.495c-.775.326-2.184.634-2.93 0-.197-.084-.28-.206-.28-.42a.904.904 0 0 1 .26-.812 24.928 24.928 0 0 0-2.1-5.46 41.032 41.032 0 0 1-2.548-5.423l-.186-.504v1.4c.048 1.923.136 3.845.223 5.767.131 2.88.262 5.76.262 8.644 0 1.605-3.033 2.315-4.079 1.475a3.61 3.61 0 0 1-.672-.635 1.157 1.157 0 0 1 .103-1.606c-.03-2.115-.134-4.23-.238-6.345-.124-2.505-.247-5.01-.247-7.515a51.92 51.92 0 0 0-.44-7.122 10.08 10.08 0 0 1 .514-6.076c.784-1.587 4.732-1.773 4.518 0 1.448 2.827 2.613 5.813 3.778 8.799.404 1.036.809 2.072 1.225 3.102a41.358 41.358 0 0 0 1.913 3.938 62.04 62.04 0 0 1 .728-1.98c.27-.71.541-1.422.784-2.145a91.3 91.3 0 0 0 3.061-10.976l-.111-.3c-.169-.438.037-.83.438-1.157.635-1.12 4.676-1.764 4.443-.54a3.862 3.862 0 0 1-.07.309c-.044.176-.089.353-.089.53.646 1.805.558 3.708.471 5.605-.03.654-.06 1.307-.06 1.955-.016 1.767.135 3.527.286 5.29zm9.58 1.622c.204 1.073.408 2.145.448 3.243-.09 2.469-.037 4.94.158 7.402.028.17.064.357.102.558.21 1.091.49 2.55-.158 3.362a4.508 4.508 0 0 1-2.678 1.148c-.103.019-2.306.252-1.82-.373.58-.728.306-2.06.077-3.17-.076-.369-.147-.713-.18-1.002-.132-1.163-.102-2.343-.072-3.524.03-1.246.062-2.493-.096-3.72a45.566 45.566 0 0 1-.859-6.934c.14-2.464.075-4.947-.186-7.411-.103-1.101 4.498-2.053 4.62-1.213.251 2.668.314 5.35.186 8.026.005 1.231.232 2.42.458 3.608zm13.289-2.313c2.314-.188 4.67-.379 6.2 1.683l-.01.01c1.376 1.826 1.27 4.038 1.162 6.279-.066 1.378-.132 2.766.145 4.08.326 1.391.672 3.034-.486 4.136a10.271 10.271 0 0 1-3.77 2.09 21.09 21.09 0 0 1-8.746 1.083c-3.2-.378-3.021-2.626-2.832-5 .072-.908.146-1.834.032-2.682-.112-1.344 4.48-2.296 4.62-1.222.092.717-.032 1.561-.158 2.422-.207 1.412-.42 2.87.298 3.897.548.78 1.832.659 2.78.568.15-.014.292-.028.421-.037l.262-.019c.964-.069 2.365-.169 2.996-.876.747-.828.4-2.201.08-3.472-.165-.65-.323-1.274-.323-1.783-.01-.518.025-1.14.064-1.812.173-3.05.406-7.153-3.265-7.429-.666-.05-1.496.018-2.384.09-2.619.214-5.745.469-6.68-2.124-.397-1.09-.371-2.207-.345-3.332.012-.484.023-.97 0-1.457-.026-.578-.107-1.148-.187-1.716-.115-.816-.23-1.63-.186-2.465.15-2.987 2.987-4.452 5.563-5.134 2.8-.737 12.694-1.773 11.294 3.584-.318 1.251-4.835 1.905-4.518.747.682-2.632-2.893-2.977-4.695-2.902-.42.009-.83.056-1.241.12-.33.099-.649.23-.952.393a3.976 3.976 0 0 0-.868 3.379c.204 1.603.313 3.218.327 4.834-.01 1.316.009 3.491 1.614 3.958 1.139.324 2.456.217 3.788.109zm25.991-4.418c.167 1.958.335 3.915.397 5.877v.01c.048 1.455.17 2.903.293 4.348.118 1.392.235 2.781.286 4.173l.026.423c.138 2.193.297 4.713-.474 6.764-.672 1.783-5.246 1.979-4.35-.43.308-1.325.392-2.678.262-4.032a53.265 53.265 0 0 0-.234-4.05c-.149-1.606-.27-3.211-.373-4.817a34.465 34.465 0 0 0-7.075 0 35.212 35.212 0 0 0-.093 6.114c.062.605.18 1.255.3 1.923.299 1.652.618 3.415.166 4.89-.354 1.14-4.778 1.709-4.498.813a9.674 9.674 0 0 0-.215-3.874 26.048 26.048 0 0 1-.373-3.799c.005-1.49.084-2.974.162-4.455.053-1.004.106-2.008.136-3.012.073-2.545-.099-5.083-.271-7.623-.18-2.658-.361-5.319-.26-7.992.102-1.325 4.62-1.895 4.62-1.213-.103 2.685.078 5.355.259 8.023.183 2.71.367 5.42.254 8.143.878-.03 1.75-.078 2.625-.126 1.383-.077 2.77-.154 4.188-.154v-.262c-.085-1.594-.221-3.184-.358-4.772-.222-2.586-.444-5.17-.444-7.772 0-1.932 4.62-2.716 4.62-.401.01 2.44.217 4.863.424 7.283zm15.928 2.004a86.093 86.093 0 0 1 4.21 9.09h.009c.517 1.51 1.149 2.976 1.779 4.44.691 1.602 1.381 3.203 1.917 4.857.579 2.081-3.985 3.323-4.62 1.213-.498-1.646-1.182-3.219-1.866-4.792-.651-1.495-1.302-2.991-1.793-4.55a34.325 34.325 0 0 0-2.305-5.34 36.65 36.65 0 0 1-4.723 6.571c.028 2.455-.056 4.9-.261 7.346-.112 1.185-2.306 1.587-3.174 1.587h-.112c-.718 0-1.82-.458-1.26-1.326.168-2.044.243-4.079.243-6.123-.28-.13-.411-.345-.065-.71v-.055c-.042-4.418-.408-8.84-.775-13.263-.297-3.576-.594-7.154-.719-10.734 0-1.783 4.62-2.697 4.62-1.223.108 3.719.419 7.428.729 11.133.23 2.74.459 5.478.606 8.216 1.055-1.727 1.988-3.547 2.912-5.367a1.34 1.34 0 0 1 .747-1.484l.261-.513a193.68 193.68 0 0 0 3.444-7.084 12.528 12.528 0 0 1 3.734-4.985 5.189 5.189 0 0 1 3.22-.858c.933.112.971.634.299 1.148-1.555 1.213-2.315 2.988-3.066 4.743-.173.404-.346.807-.528 1.202a725.5 725.5 0 0 1-1.731 3.43 637.095 637.095 0 0 0-1.732 3.43zm29.019 2.78c1.054-.092 2.408-.064 2.65.906v.01c.206.989-1.269 1.82-2.454 1.988l.034 1.819c.028 1.62.056 3.24.124 4.864.014.317.05.699.09 1.116.156 1.633.365 3.816-.556 4.857a4.621 4.621 0 0 1-2.679 1.213c-.093.029-2.324.225-1.82-.382.743-.87.601-2.652.489-4.061-.036-.45-.069-.862-.069-1.194l-.04-.938c-.101-2.374-.203-4.77-.203-7.145a18.312 18.312 0 0 1-3.78.336 26.699 26.699 0 0 1-1.221-.171c-1.537-.238-3.439-.532-4.668.003l.001.027c.056.943.111 1.877.111 2.83v9.706c0 1.223-4.621 1.895-4.621 1.223.003-1.043.012-2.086.021-3.13.026-3.04.053-6.082-.086-9.125-.054-1.14-.187-2.305-.32-3.477-.281-2.464-.564-4.957-.128-7.304a8.163 8.163 0 0 1 5.32-6.617 28.062 28.062 0 0 1 8.727-1.643c2.772-.103 4.378.924 4.611 3.79.191 2.103.269 4.246.347 6.384.036.992.072 1.983.12 2.968v1.148zm-14.394.72a375.93 375.93 0 0 0-.095-1.122c-.091-1.074-.182-2.145-.258-3.237-.187-2.707.13-6.506 2.66-8.158a8.323 8.323 0 0 1 2.753-.504 4.274 4.274 0 0 1 3.295.215c1.198.799 1.125 3.355 1.079 4.958-.008.27-.015.514-.015.717 0 1.486.1 2.968.201 4.468.057.837.113 1.68.154 2.532-.654.075-1.307.103-1.961.093a57.703 57.703 0 0 1-2.283-.107c-1.891-.114-3.738-.225-5.53.144zM59.866 38.485c-.513.345-1.11.56-1.727.616a2.618 2.618 0 0 1-1.503-.252 1.118 1.118 0 0 1-.494-.616v-.542a.812.812 0 0 1-.159-.7c.019-.14.066-.28.112-.42-.17-1.142-.232-2.299-.187-3.453.02-1.167 1.606-1.727 2.54-1.82.923-.093 2.071.215 2.071 1.363a8.998 8.998 0 0 0 .486 3.985c.317.625-.243 1.195-.84 1.587l-.299.252z"/></svg>