<svg xmlns="http://www.w3.org/2000/svg" viewBox="0 0 196 60"><path d="M83.454 41.428 76.9 14.413C76.453 11.44 73.628 6 66.031 6a1.897 1.897 0 1 0 0 3.795c6.145 0 7.052 4.714 7.132 5.236l6.03 24.916h-2.62a15.226 15.226 0 0 0-6.712-10.779 3.166 3.166 0 0 0-1.929 2.916c0 .076-.01.146-.02.217l-.014.107a11.426 11.426 0 0 1 4.84 11.334 11.414 11.414 0 1 1-22.5-3.795 11.303 11.303 0 0 1 1.021-3.137 2.524 2.524 0 0 1-2.337-2.513.956.956 0 0 0-.244-.619 15.119 15.119 0 0 0-2.269 6.269h-2.303A15.226 15.226 0 0 0 29.02 26.633a15.226 15.226 0 0 0-15.078 13.314h-2.621l6.024-24.916c.08-.522.993-5.23 7.137-5.23a1.898 1.898 0 1 0 0-3.795c-7.602-.006-10.421 5.44-10.88 8.407L7.066 41.428c-.34 1.4.67 2.309 1.804 2.309l.045.005h5.032c.102.794.273 1.566.494 2.315a.914.914 0 0 0 .125-.448 2.53 2.53 0 0 1 3.137-2.451 10.036 10.036 0 0 1-.097-1.316 11.414 11.414 0 1 1 4.613 9.15c-.455.4-1.04.622-1.646.624a.95.95 0 0 0-.947.948c0 .363-.08.709-.221 1.02a15.096 15.096 0 0 0 9.621 3.473 15.226 15.226 0 0 0 15.084-13.315h2.292a15.227 15.227 0 0 0 15.085 13.315A15.227 15.227 0 0 0 76.56 43.742h5.037l.046-.005c1.134 0 2.138-.908 1.804-2.31h.006zM97.885 29.6c0-.897.732-1.629 1.589-1.629h9.077c6.433 0 10.665 3.416 10.665 9.037v.08c0 6.144-5.128 9.32-11.193 9.32h-6.921v8.635c0 .896-.737 1.628-1.634 1.628-.85 0-1.588-.737-1.588-1.628V29.6h.005zm10.257 13.881c4.726 0 7.818-2.524 7.818-6.268v-.08c0-4.073-3.052-6.189-7.653-6.189h-7.205v12.537h7.04zm17.218-14.086a1.62 1.62 0 0 1 1.588-1.628c.896 0 1.628.732 1.628 1.628v25.648a1.631 1.631 0 0 1-1.628 1.628c-.851 0-1.588-.732-1.588-1.628V29.395zm11.561.04c0-.85.738-1.588 1.589-1.588h.448c.737 0 1.18.368 1.628.936l17.302 22.067v-21.5a1.588 1.588 0 0 1 1.589-1.588c.851 0 1.549.737 1.549 1.588v25.738c0 .851-.607 1.504-1.464 1.504h-.165c-.692 0-1.18-.409-1.667-.976L140.058 33.02v22.068a1.588 1.588 0 0 1-1.588 1.589c-.851 0-1.549-.738-1.549-1.589V29.435zm32.155-.04c0-.896.737-1.628 1.588-1.628.896 0 1.628.732 1.628 1.628V44.99l16.248-16.656c.368-.323.737-.567 1.265-.567.851 0 1.548.772 1.548 1.589 0 .448-.21.81-.533 1.134L180.722 40.51l10.836 13.354c.283.369.442.692.442 1.185 0 .851-.732 1.629-1.622 1.629-.613 0-1.022-.33-1.305-.738l-10.626-13.23-6.149 6.15v6.184a1.635 1.635 0 0 1-1.628 1.634c-.851 0-1.589-.738-1.589-1.629V29.395h-.005zm-37.527-10.909a4.586 4.586 0 0 1-4.578-4.584 4.583 4.583 0 0 1-4.584 4.584 4.583 4.583 0 0 1 4.584 4.584 4.585 4.585 0 0 1 4.578-4.584zM61.488 30.422c.312 0 .624.017.925.04a3.15 3.15 0 0 0-2.7-1.543 2.518 2.518 0 0 1-2.383-1.713c-.912.26-1.797.606-2.644 1.032a3.465 3.465 0 0 1 .044.013c.064.02.125.038.194.038a2.532 2.532 0 0 1 2.53 2.53c0 .12-.017.239-.034.352a11.38 11.38 0 0 1 4.068-.749zm5.583-5.698a5.69 5.69 0 0 0 4.021 1.665 5.686 5.686 0 0 0-5.69 5.69 5.693 5.693 0 0 0-5.69-5.69 5.692 5.692 0 0 0 5.69-5.685 5.69 5.69 0 0 0 1.669 4.02zM52.469 29.8a3.477 3.477 0 0 0 2.455 1.02 3.477 3.477 0 0 0-3.472 3.478 3.47 3.47 0 0 0-3.477-3.478 3.477 3.477 0 0 0 3.477-3.477c0 .921.366 1.805 1.017 2.457zm-34.36 18.269a3.478 3.478 0 0 0 2.46 1.018 3.478 3.478 0 0 0-3.478 3.478 3.473 3.473 0 0 0-3.477-3.478 3.477 3.477 0 0 0 3.477-3.477c0 .922.367 1.806 1.019 2.459z"/></svg>