<svg xmlns="http://www.w3.org/2000/svg" viewBox="0 0 214 90"><path d="M71.577 1c4.045 0 3.706 5.13-.339 6.484v.01c3.871 2.613 1.084 9.842-4.955 9.91-7.113 0-8.371-7.81-4.094-10.549l.736.968c-1.936 1.258-2.39 4.161-.968 6.097.3-.348.571-.736.794-1.142l5.468-9.388C69.129 1.794 70.493 1 71.577 1zm-8.255 14.12a5.806 5.806 0 0 0 2.903.687c4.897 0 6.775-7.007 2.11-8.033h-.571l-3.416 5.923c-.3.504-.64.978-1.026 1.423zm6.716-11.333-1.645 2.787.07-.001c2.002-.047 2.903-.068 3.917-1.934 1.016-1.878-.861-3.407-2.342-.852zm80.384 8.198.116-.164a1.232 1.232 0 0 1 .745.677c-1.655 1.936-3.59 3.707-6.552 3.755h-.106a2.227 2.227 0 0 1-2.226-1.645l1.142-.571a.792.792 0 0 0 1.179.36.792.792 0 0 0 .292-.36l3.077-5.294c.571-.92-.851-2.051-3.125 1.016l-6.039 10.55h-2.052l3.706-6.388a5.47 5.47 0 0 1-2.167.513h-.455c-2.168 2.739-5.749 2.226-5.749-.339l-.078.074c-1.209 1.154-2.123 2.026-3.686 2.026-1.588 0-2.217-1.413-1.355-2.903l2.613-4.549c.851-1.48-.513-1.993-3.639 1.936l-3.078 5.352h-2.042l.678-1.19a7.115 7.115 0 0 1-3.136 1.354h-.619a2.225 2.225 0 0 1-2.226-1.645l1.258-.687a1.136 1.136 0 0 0 .968.745c1.28 0 1.51-1.643 1.752-3.365.123-.882.25-1.785.522-2.5-.181.236-.379.498-.592.78-.659.874-1.455 1.929-2.311 2.917-1.713 1.994-3.697 3.765-5.304 3.765-1.587 0-2.216-1.423-1.355-2.904l2.158-3.706a.962.962 0 0 0-.106-1.132l-.29-.349c-.558.73-.928 1.234-1.238 1.656-.611.83-.991 1.348-2.121 2.67-1.712 1.994-4.5 3.765-6.261 3.765-1.761 0-2.845-1.084-2.73-2.565a5.923 5.923 0 0 1-2.68.794h-.455a4.5 4.5 0 0 1-3.474 1.877c-1.307 0-2.332-.793-2.332-2.158-1.249 1.248-2.11 2.1-3.697 2.1-1.597 0-2.226-1.422-1.375-2.903l2.168-3.697a.968.968 0 0 0-.116-1.142l-.29-.339c-.443.58-.82 1.078-1.153 1.519-.912 1.206-1.497 1.978-2.206 2.807-1.712 1.994-4.267 3.755-5.293 3.755-1.026 0-1.655-.503-1.771-1.306-.17.14-.316.272-.451.393-.637.57-1.019.913-2.336.913-1.597 0-2.217-1.422-1.365-2.903l2.845-4.887c.862-1.481 2.39-2.342 3.475-2.342a2.11 2.11 0 0 1 2.274 2.051h1.151l-3.242 5.749-.012.021c-.445.778-.609 1.063.235 1.063.852 0 2.274-1.307 3.755-3.02l.116-.174c1.128-1.37 2.177-2.827 3.028-4.009l.388-.54-.174-.222c-.745-.968-.62-2.11.513-3.136l1.026 1.142a.793.793 0 0 0-.116 1.2l1.142 1.355c.629.803.968 1.48.28 2.739l-2.041 3.523-.013.021c-.445.778-.609 1.063.235 1.063.852 0 2.284-1.307 3.755-3.02l.116-.106 5.69-9.852h2.052L97.088 6.41c.377-.28.832-.445 1.306-.455a1.703 1.703 0 0 1 1.548.782c.199.308.294.672.271 1.037a5.04 5.04 0 0 1-.735 2.342l-1.936 3.29a4.325 4.325 0 0 0 3.068-1.48l.116-.106 2.062-3.31a4.268 4.268 0 0 1 3.813-2.332c1.655 0 2.671 1.364 1.597 3.251l-.291.513c-1.539 2.623-3.987 2.904-5.293 2.333l-.165.338c-.968 1.597-.339 2.39 1.016 2.39 1.374 0 3.252-1.306 4.733-3.019l.106-.174c1.109-1.337 2.129-2.757 2.967-3.924.156-.218.306-.427.449-.624l-.106-.175c-.745-.967-.629-2.1.513-3.126l1.016 1.142a.798.798 0 0 0-.107 1.2l1.133 1.355c.629.804.968 1.481.29 2.74l-2.052 3.522-.012.021c-.445.778-.609 1.063.235 1.063.861 0 2.284-1.307 3.765-3.02l.106-.164c1.39-1.603 2.774-3.53 3.732-4.864.303-.422.564-.785.768-1.06l1.539.804c-.771 1.578-1.025 3.31-1.253 4.86-.141.961-.271 1.852-.508 2.592.9-.629 1.732-1.374 2.448-2.226l.107-.106 5.642-9.852h2.042L127.766 7.6c1.026-1.026 1.713-1.529 2.845-1.529 1.142 0 1.936 1.132 1.084 2.671l-2.903 5.12-.012.02c-.446.779-.609 1.064.244 1.064.852 0 2.274-1.307 3.755-3.02l.116-.106.91-1.423.968-1.713c1.132-2.052 1.993-2.67 3.929-2.67 1.936 0 3.078 2.041 1.819 4.16l-1.935 3.291a4.38 4.38 0 0 0 3.068-1.48l.116-.165 3.135-5.468h2.042l-.396.687c2.051-1.82 5.129-.745 3.251 2.439l-2.225 3.822c-.124.2-.238.422-.356.65-.15.29-.307.592-.496.88a9.51 9.51 0 0 0 3.697-2.846zM106.475 9.43c1.2-2.11-.852-2.448-2.052-.455h.01l-1.258 2.323c.735.232 2.042.29 3.01-1.355l.29-.513zm-31.25 5.575c.794 0 1.984-.91 3.242-2.846l1.655-2.729c.968-1.887-1.2-2.342-2.284-.455l-2.845 4.946c-.445.793-.57 1.084.232 1.084zm18.183-.104c.1.037.206.053.312.046v-.058a1.878 1.878 0 0 0 1.597-.91 2.96 2.96 0 0 1-1.307-2.11l-.745 1.258c-.194.31-.31.658-.339 1.026a.745.745 0 0 0 .482.748zm1.77-2.752c.15.316.373.593.651.804l2.052-3.58c.232-.359.368-.775.397-1.2a.794.794 0 0 0-.736-.852c-1.142 0-2.564 2.39-2.564 3.813-.016.35.053.697.2 1.014zm42.15-.222h.116l1.481-2.613c1.2-2.11-.736-3.02-2.159-.62l-.967 1.646-1.539 2.671c-1.2 2.11 1.074 2.449 2.042.794a1.328 1.328 0 0 1-.165-.678 1.2 1.2 0 0 1 1.191-1.2z"/><path d="M98.558 71.474h.804c3.068.174 5.516.967 7.065 2.68 1.529-1.713 3.977-2.564 7.103-2.68h.745c6.891.454 10.017 5.42 15.543 7.52.851.386 1.79.58 2.729.57 1.423-.174 2.332-1.597 2.11-3.193-.233-1.588-1.878-3.194-3.755-2.39-.252.115-.484.27-.678.454a.626.626 0 0 1-.697.348c-.338-.29 0-.687.175-.968a3.42 3.42 0 0 1 3.474-1.712c3.194.232 6.097 3.019 5.574 7.287-1.016 6.436-6.822 8.139-13.655 8.71h-2.226a27.495 27.495 0 0 1-16.394-6.262A27.951 27.951 0 0 1 90.023 88.1h-2.226c-6.94-.63-12.746-2.274-13.772-8.826-.397-4.665 2.39-6.94 5.584-7.162a3.475 3.475 0 0 1 3.465 1.704c.174.28.465.677.174.967a.736.736 0 0 1-.677-.348 2.274 2.274 0 0 0-1.597-.678c-2.226-.058-3.474 2.39-2.565 4.326a2.448 2.448 0 0 0 1.936 1.423c.939 0 1.877-.194 2.73-.58A13.55 13.55 0 0 0 85.3 77.86c4.161-2.4 7.404-5.807 13.258-6.388z" fill="url(#a)"/><path d="m208.827 48.228 3.271-3.262 1.181 1.19-3.252 3.262-1.19-1.19h-.01zm-200.33.048 3.252-3.261 1.19 1.18-3.261 3.262-1.19-1.18h.009z" fill="#636466"/><path d="m3 42.693 3.261-3.261 3.252 3.251-3.261 3.262L3 42.693zm200.33 0 3.262-3.261 3.251 3.251-3.261 3.262-3.252-3.252z"/><path d="M111.256 34.195c.184.348.29.735.29 1.132v19.356a2.613 2.613 0 0 1-2.613 2.613h-7.694v1.2h8.884a2.614 2.614 0 0 0 2.613-2.613V36.527a2.623 2.623 0 0 0-1.48-2.342v.01zm11.962-.29v23.342h-3.02v1.19h4.21V33.906h-1.19zm18.726 0v23.342h-3.358l.339 1.19h4.209V33.906h-1.19zm-7.287 12.58v10.762h-3.02v1.19h4.21v-7.79l-1.19-4.161zm18.387 1.762h3.475v-1.18h-4.675c-.387 0-.774-.097-1.132-.291a2.56 2.56 0 0 0 2.323 1.48l.009-.009zm1.597 1.548-1.2.281v2.904h1.2v-3.184zm5.855-15.61c.194.358.291.745.291 1.142v4.955l-3.078.678v1.48l4.268-.967v-5.004a2.614 2.614 0 0 0-1.481-2.284zM30.814 42.847h-1.19v-5.923H32.7v1.19h-1.887v4.733zm7.287-6.378v7.23h-.01a2.565 2.565 0 0 1-.967 1.993 2.96 2.96 0 0 1 .968 2.1v8.033a2.613 2.613 0 0 1-2.613 2.613h-8.884v-1.19h7.703a2.613 2.613 0 0 0 2.613-2.614v-8.032a2.96 2.96 0 0 0-.968-2.11 2.564 2.564 0 0 0 .968-1.994V35.27a2.32 2.32 0 0 0-.29-1.132 2.613 2.613 0 0 1 1.48 2.332zm-7.287 16.5h-1.19v-5.903H32.7v1.18h-1.887v4.724zm18.794 0h-1.2V36.935h3.078v1.19h-1.878V52.97zm5.807-18.774c.174.348.27.735.29 1.132v19.356a2.614 2.614 0 0 1-2.632 2.613H46.82a2.48 2.48 0 0 1-1.132-.281 2.613 2.613 0 0 0 2.322 1.48h6.262a2.613 2.613 0 0 0 2.613-2.612V36.527a2.613 2.613 0 0 0-1.471-2.342v.01zm11.778 8.652h1.2v-4.733h1.877v-1.19h-3.077v5.923zm7.007 5.12a2.564 2.564 0 0 0 1.48-2.333v-9.165a2.613 2.613 0 0 0-1.48-2.332c.174.348.27.735.29 1.132v9.223A2.564 2.564 0 0 1 73 46.824l1.77 10.481H71.52l.232 1.19h4.21l-1.752-10.529h-.01zm-5.41-.91h-1.597v10.19h-3.01v1.19h4.21v-10.19h.629l-.232-1.18v-.01zm16.626 5.922h1.19V38.114h1.878v-1.19h-3.068v16.055zm7.346-17.652a2.43 2.43 0 0 0-.29-1.132v-.01a2.613 2.613 0 0 1 1.48 2.342v19.356a2.614 2.614 0 0 1-2.623 2.613h-6.32a2.613 2.613 0 0 1-2.332-1.48c.358.183.745.28 1.142.28h6.32a2.611 2.611 0 0 0 2.623-2.613V35.327zM105.39 52.97h-1.132V36.934h3.019v1.19h-1.887V52.97zm55.396-7.51a2.38 2.38 0 0 0-.291-1.142 2.613 2.613 0 0 1 1.481 2.284v9.223a2.613 2.613 0 0 1-2.613 2.613h-6.329a2.61 2.61 0 0 1-2.323-1.481c.358.184.745.28 1.132.28h6.33a2.612 2.612 0 0 0 2.613-2.612V45.46zm-7.346-2.613v-5.923h3.078v1.19h-1.878v4.733h-1.2zm18.795 4.21h.387l.803 2.564v8.817h-4.22v-1.19h3.03V47.056zm7.451-13.153h1.597l-3.929 12.243 3.929 12.29h-4.277l-.049-.164-.29-1.035h3.416l-3.929-12.291 3.532-11.043zm11.44 23.343V33.904h1.2v24.534h-4.22v-1.19h3.02z" fill="#9D9D9D"/><path d="M34.627 40.282a2.565 2.565 0 0 1-.91 1.994 2.963 2.963 0 0 1 .968 2.1v8.032a2.613 2.613 0 0 1-2.613 2.614h-8.884V30.44h8.884a2.613 2.613 0 0 1 2.613 2.613v7.23h-.058zm-4.258-5.642h-3.02v5.923h3.068V34.64h-.058.01zm0 10.142h-3.02v5.972h3.068v-5.972h-.058.01zm20.478-14.361a2.613 2.613 0 0 1 2.613 2.612V52.39a2.613 2.613 0 0 1-2.613 2.623h-6.32a2.613 2.613 0 0 1-2.613-2.613V33.043a2.564 2.564 0 0 1 2.613-2.613h6.32v-.01zm-1.645 4.21h-3.02v16.113h3.068V34.64h-.058l.01-.01zm19.065 20.323-1.703-10.181h-1.597v10.18h-4.21V30.43h8.875a2.564 2.564 0 0 1 2.564 2.613v9.175a2.565 2.565 0 0 1-1.47 2.332l1.76 10.472h-4.21v-.059l-.009-.01zM64.918 34.63v5.923h3.078V34.63h-3.078zm22.937-4.21a2.613 2.613 0 0 1 2.613 2.613V52.39a2.611 2.611 0 0 1-2.613 2.623h-6.262a2.613 2.613 0 0 1-2.622-2.613V33.043a2.566 2.566 0 0 1 2.613-2.613h6.32-.05v-.01zm-1.645 4.22h-3.078v16.114h3.078V34.64zm20.497-4.21a2.614 2.614 0 0 1 2.613 2.613V52.4a2.613 2.613 0 0 1-2.613 2.623h-8.942V30.44h8.942v-.01zm-1.645 4.21h-3.087v16.114h3.077V34.64h.01zm11.71-4.21h4.22v24.533h-4.21V30.43h-.01zm22.946 0v24.533h-4.21l-3.077-10.694v10.694h-4.21V30.43h4.161l3.068 10.075V30.44h4.268v-.01zm16.172 10.133a2.612 2.612 0 0 1 2.613 2.613v9.232a2.614 2.614 0 0 1-2.613 2.614h-6.32a2.614 2.614 0 0 1-2.613-2.614v-5.07l4.21-.968v4.384h3.068v-5.972h-4.665a2.565 2.565 0 0 1-2.613-2.622v-9.107a2.575 2.575 0 0 1 .751-1.862 2.562 2.562 0 0 1 1.862-.751h6.32a2.612 2.612 0 0 1 2.613 2.613v4.955l-4.259.968V34.64h-3.077v5.923h4.723zm17.991 2.11 3.929 12.29h-4.268v-.106l-3.136-10.075h-.396v10.181h-4.21V30.43h4.21v10.133h.338l3.242-10.133h4.278l-3.987 12.243zm10.81-12.243h4.219v24.533h-4.219V30.43z"/><defs><linearGradient id="a" x1="0" y1="71" x2="0" y2="88" gradientUnits="userSpaceOnUse"><stop stop-color="#464646"/><stop offset="1"/></linearGradient></defs></svg>