<svg xmlns="http://www.w3.org/2000/svg" viewBox="0 0 210 64"><path d="M20.903 15.847c1.369-1.783 3.55-3.009 6.25-3.009 4.66 0 7.804 3.27 7.804 8.359v10.55h-3.513v-9.919c0-3.195-1.85-5.572-5.03-5.572-3.366 0-5.659 2.637-5.659 6.315v9.176h-3.513V5h3.513v10.847h.148zM7 31.747v-4.458h4.253v4.458H7zm46.06-18.389h-8.322v-6.5h-3.514v6.5h-3.328v3.418h3.328V27.14c0 2.972 1.665 4.607 4.66 4.607h7.175v-3.455h-6.472c-1.184 0-1.85-.669-1.85-1.82v-9.696h8.322v-3.418zm18.959 3.084c1.183-2.192 3.328-3.567 6.14-3.567 4.326 0 6.841 3.12 6.841 7.579v11.293h-3.513V20.825c0-2.786-1.517-4.57-4.069-4.57-2.108 0-4.549 1.635-4.549 5.759v9.733h-3.513V20.825c0-2.786-1.517-4.643-4.105-4.57-2.738.075-4.55 2.601-4.55 6.056v9.436h-3.513V13.358h3.365v2.638h.149c1.109-1.82 2.958-3.12 5.4-3.12 2.736 0 4.733 1.411 5.806 3.566h.11zm17.743 10.55c0 3.009 1.701 4.755 4.845 4.755h3.476v-3.418h-2.959c-1.183 0-1.849-.669-1.849-1.82V5h-3.513v21.992zM56.87 39.1h.148v-2.659H60.5v18.28h-3.483v-2.843h-.148c-1.371 1.958-3.557 3.324-6.595 3.36-5.336.075-9.3-3.95-9.3-9.675 0-5.687 3.89-9.712 9.337-9.639 2.964.037 5.187 1.33 6.558 3.176zm-12.375 6.463c0 3.471 2.445 6.278 6.298 6.278 3.743 0 6.188-2.843 6.188-6.278 0-3.471-2.445-6.278-6.188-6.278-3.853 0-6.298 2.807-6.298 6.278zM83.5 43.09c-.852-4.136-4.52-7.165-9.336-7.165-5.817 0-9.707 4.247-9.707 9.64 0 5.39 3.89 9.675 9.707 9.675 4.816 0 8.484-3.102 9.336-7.275h-3.667c-.741 2.326-2.927 3.914-5.632 3.914-3.78 0-6.225-2.844-6.225-6.315 0-3.471 2.446-6.278 6.225-6.278 2.816 0 4.89 1.662 5.632 3.804H83.5zM102.17 39.1h.148v-2.659h3.483v18.28h-3.483v-2.843h-.148c-1.371 1.958-3.557 3.324-6.595 3.36-5.335.075-9.3-3.95-9.3-9.675 0-5.687 3.89-9.712 9.337-9.639 2.964.037 5.187 1.33 6.558 3.176zm-12.375 6.463c0 3.471 2.445 6.278 6.299 6.278 3.742 0 6.187-2.843 6.187-6.278 0-3.471-2.445-6.278-6.187-6.278-3.854 0-6.299 2.807-6.299 6.278zm36.006-6.278h-.148c-1.371-1.957-3.669-3.324-6.596-3.36-5.335-.075-9.299 3.95-9.299 9.675 0 5.687 3.89 9.713 9.337 9.639 2.889-.037 5.187-1.33 6.521-3.176h.185v2.659h3.483v-26.59h-3.483v11.153zm-6.225 12.593c-3.853 0-6.298-2.806-6.298-6.278 0-3.471 2.445-6.278 6.298-6.278 3.743 0 6.188 2.843 6.188 6.278 0 3.471-2.445 6.278-6.188 6.278zm13.483-6.278c0-5.355 3.854-9.676 9.485-9.676 6.077 0 9.893 4.801 9.411 10.895h-15.154c.26 2.843 2.631 5.059 5.966 5.059 2.371 0 4.335-1.108 5.15-2.844h3.668c-1.223 3.878-4.669 6.205-8.967 6.205-5.928 0-9.559-4.432-9.559-9.639zm15.08-1.883c-.556-2.622-2.742-4.432-5.669-4.432-2.89 0-5.076 1.847-5.594 4.432h11.263zm28.787-7.756c-2.816 0-4.965 1.367-6.15 3.546h-.112c-1.074-2.142-3.075-3.546-5.817-3.546-2.445 0-4.297 1.293-5.409 3.102h-.148v-2.622h-3.372v18.28h3.52v-9.38c0-3.434 1.816-5.945 4.558-6.019 2.593-.074 4.112 1.773 4.112 4.542v10.858h3.52v-9.676c0-4.1 2.445-5.724 4.557-5.724 2.557 0 4.076 1.773 4.076 4.542v10.858h3.519V43.495c0-4.431-2.519-7.534-6.854-7.534zm13.157.48 6.298 15.363 5.817-15.363h3.594l-8.077 21.124c-1.186 3.102-2.89 4.543-6.076 4.543h-4.335v-3.509h4.335c1.63 0 2.297-.554 2.89-2.068l.037-.073-8.374-20.017h3.891z"/></svg>